<svg xmlns="http://www.w3.org/2000/svg" xmlns:xlink="http://www.w3.org/1999/xlink" viewBox="0 0 76 81" fill="#fff" fill-rule="evenodd" stroke="#000" stroke-linecap="round" stroke-linejoin="round"><use xlink:href="#A" x=".5" y=".5"/><symbol id="A" overflow="visible"><path d="M23.55 64.346c0 2.736-2.1 4.863-4.8 4.863s-4.8-2.128-4.8-4.863V43.221c0-2.736 2.1-4.864 4.8-4.864s4.8 2.128 4.8 4.864v21.126zm14.1 5.775c0 2.736-2.1 4.863-4.8 4.863s-4.8-2.128-4.8-4.863V37.749c0-2.736 2.1-4.864 4.8-4.864s4.8 2.128 4.8 4.864v32.372zM9.6 59.634c0 2.736-2.1 4.863-4.8 4.863S0 62.37 0 59.634V48.236c0-2.736 2.1-4.864 4.8-4.864s4.8 2.128 4.8 4.864v11.399zm42.15 15.503c0 2.736-2.1 4.863-4.8 4.863s-4.8-2.128-4.8-4.863V32.278c0-2.736 2.1-4.864 4.8-4.864s4.8 2.128 4.8 4.864v42.859zm15.3-2.128c-.75 0-1.65-.152-2.4-.456l-6-1.976c-1.05-.304-1.5-1.368-1.2-2.432s1.35-1.52 2.4-1.216l6 1.976c1.2.456 2.55.152 3.6-.608s1.65-1.976 1.65-3.344V25.59c0-1.824-1.2-3.496-2.85-3.952L11.4 4.161c-1.2-.456-2.55-.152-3.6.608S6.15 6.744 6.15 8.112v27.053c0 1.064-.9 1.976-1.95 1.976s-1.95-.912-1.95-1.976V8.112c0-2.584 1.2-4.863 3.15-6.535C7.5.057 10.05-.399 12.45.361L69.3 17.839c3.3 1.064 5.7 4.104 5.7 7.751v39.364c0 2.584-1.2 5.015-3.3 6.535-1.5 1.064-3 1.52-4.65 1.52" fill="#000" stroke="none"/></symbol></svg>