<?xml version="1.0" encoding="utf-8"?>
<!-- Generator: Adobe Illustrator 22.1.0, SVG Export Plug-In . SVG Version: 6.00 Build 0)  -->
<svg version="1.1" id="Layer_1" xmlns="http://www.w3.org/2000/svg" xmlns:xlink="http://www.w3.org/1999/xlink" x="0px" y="0px"
	 viewBox="0 0 30 28" style="enable-background:new 0 0 30 28;" xml:space="preserve">
<style type="text/css">
	.st0{fill:#E87314;}
	.st1{fill:#FFFFFF;}
</style>
<path class="st0" d="M23.6,1.7c-0.5-1-1.8-1.7-2.9-1.7H9.2C8.1,0,6.8,0.8,6.3,1.7L0.4,12.3c-0.5,1-0.5,2.5,0,3.5l5.9,10.5
	c0.5,1,1.8,1.7,2.9,1.7h11.7c1.1,0,2.4-0.8,2.9-1.7l5.9-10.5c0.5-1,0.5-2.5,0-3.5L23.6,1.7z"/>
<path class="st1" d="M9.1,19c-1-0.4-2-0.9-2.9-1.3c-1.9-0.8-2.5-2.9-0.3-3.7c1.8-0.6,3.5-1.2,5.3-1.7c0.3-1.6,0.6-3.3,0.9-4.9
	c0.3-2.3,2.2-3.2,3.4-1c0.8,1.3,1.5,2.6,2.3,3.8c1.8-0.5,3.7-1,5.5-1.5c1.9-0.6,2.7,1,1.4,2.4c-1.3,1.5-2.6,3.1-3.9,4.6
	c0.8,1.6,1.6,3.1,2.4,4.7c0.8,1.8-0.8,3-2.6,2.5c-1.2-0.4-2.4-0.7-3.6-1.1l-0.4-2.7l3.8,1l-2.3-4.5l3.6-4.3l-5.2,1.4l-2.5-4.2
	l-0.9,5.3l-5.2,1.7l4,1.6L9.1,19L9.1,19z"/>
</svg>
