<?xml version="1.0" encoding="utf-8"?>
<!-- Generator: Adobe Illustrator 22.1.0, SVG Export Plug-In . SVG Version: 6.00 Build 0)  -->
<svg version="1.1" id="Layer_1" xmlns="http://www.w3.org/2000/svg" xmlns:xlink="http://www.w3.org/1999/xlink" x="0px" y="0px"
	 viewBox="0 0 30 28" style="enable-background:new 0 0 30 28;" xml:space="preserve">
<style type="text/css">
	.st0{fill:#E87314;}
	.st1{fill:#FFFFFF;}
</style>
<path class="st0" d="M23.6,1.7c-0.5-1-1.8-1.7-2.9-1.7H9.2C8.1,0,6.8,0.8,6.3,1.7L0.4,12.3c-0.5,1-0.5,2.5,0,3.5l5.9,10.5
	c0.5,1,1.8,1.7,2.9,1.7h11.7c1.1,0,2.4-0.8,2.9-1.7l5.9-10.5c0.5-1,0.5-2.5,0-3.5L23.6,1.7z"/>
<path class="st1" d="M10.4,13.9c-0.8-0.3-1.6-0.7-2.3-1c-1.5-0.6-2-2.3-0.2-2.9c1.4-0.5,2.7-0.9,4.2-1.3c0.2-1.3,0.5-2.6,0.7-3.8
	C13,3,14.5,2.3,15.5,4c0.6,1,1.2,2,1.8,3c1.4-0.4,2.9-0.8,4.3-1.2c1.5-0.5,2.1,0.8,1.1,1.9c-1,1.2-2,2.4-3.1,3.6
	c0.6,1.3,1.3,2.4,1.9,3.7c0.6,1.4-0.6,2.3-2,2c-0.9-0.3-1.9-0.5-2.8-0.9l-0.3-2.1l3,0.8l-1.8-3.5l2.8-3.4l-4.1,1.1l-2-3.3l-0.7,4.2
	l-4.1,1.3l3.1,1.3L10.4,13.9L10.4,13.9z"/>
<g>
	<path class="st1" d="M8.9,22.6c0,1,0.7,1.3,1.6,1.3c0.5,0,1.3-0.3,1.3-1c0-0.6-0.6-0.8-1-0.9l-1.1-0.3c-0.6-0.1-1.1-0.4-1.1-1.2
		c0-0.5,0.3-1.4,1.7-1.4c1,0,1.9,0.5,1.8,1.6h-0.5c0-0.8-0.7-1.1-1.4-1.1c-0.7,0-1.3,0.3-1.3,1c0,0.5,0.4,0.7,0.8,0.8l1.2,0.3
		c0.7,0.2,1.3,0.5,1.3,1.3c0,0.3-0.1,1.4-1.9,1.4c-1.2,0-2.1-0.5-2-1.8H8.9z"/>
	<path class="st1" d="M17.3,24.6L16.5,24c-0.3,0.2-0.8,0.4-1.3,0.4c-1.6,0-2.4-1.2-2.4-2.6c0-1.4,0.8-2.6,2.4-2.6
		c1.6,0,2.4,1.2,2.4,2.6c0,0.8-0.3,1.5-0.8,2l0.7,0.5L17.3,24.6z M16.4,23.5c0.4-0.4,0.6-1.1,0.6-1.7c0-1.1-0.6-2.2-1.9-2.2
		c-1.3,0-1.9,1.1-1.9,2.2c0,1.1,0.6,2.2,1.9,2.2c0.4,0,0.7-0.1,0.9-0.2l-0.7-0.5l0.2-0.3L16.4,23.5z"/>
	<path class="st1" d="M18.3,19.3h0.5v4.6h2.8v0.4h-3.3V19.3z"/>
</g>
</svg>
